<svg id="Layer_1" data-name="Layer 1" xmlns="http://www.w3.org/2000/svg" viewBox="0 0 47.63 47.63"><defs><style>.cls-1{fill:#25a9ce;}</style></defs><title>Icons</title><path class="cls-1" d="M123.59,359.42a1.34,1.34,0,0,0,0-2.69,1.36,1.36,0,0,0-1.34,1.34A1.45,1.45,0,0,0,123.59,359.42Z" transform="translate(-95.83 -322.23)"/><path class="cls-1" d="M115.7,334.64a1.36,1.36,0,0,0-1.34,1.34,1.32,1.32,0,0,0,1.34,1.34A1.36,1.36,0,0,0,117,336,1.4,1.4,0,0,0,115.7,334.64Z" transform="translate(-95.83 -322.23)"/><path class="cls-1" d="M119.65,322.23A23.81,23.81,0,1,0,143.46,346,23.81,23.81,0,0,0,119.65,322.23Zm-8.45,29.14v2.73h-1.87c-2,0-3.27-1.46-3.74-3.51a12.65,12.65,0,0,1,0-7.07A4.34,4.34,0,0,1,110,340h9.7v-0.88H112.6v-2.75c0-2,.53-3.1,3.51-3.62a20.35,20.35,0,0,1,3.39-.29h0.12a24.44,24.44,0,0,1,3.57.29,4.31,4.31,0,0,1,2.92,1.76v9a2.54,2.54,0,0,1-2.51,2.57h-7A5.43,5.43,0,0,0,111.19,351.37Zm22.57-.83c-0.7,2.1-1.46,3.51-3.51,3.51H119.67v0.88h7v2.69c0,2-1.75,3-3.51,3.57a13.51,13.51,0,0,1-3.57.53,11.86,11.86,0,0,1-3.51-.53,5.4,5.4,0,0,1-2.91-1.77v-8a3.44,3.44,0,0,1,3.38-3.33h7a4.54,4.54,0,0,0,4.51-4.57V339.9h2.1c2,0,3,1.52,3.51,3.51A11.86,11.86,0,0,1,133.76,350.54Z" transform="translate(-95.83 -322.23)"/></svg>